<svg xmlns="http://www.w3.org/2000/svg" width="252" height="276.74" viewBox="0 0 252 276.74">
  <g id="Group_2176" data-name="Group 2176" transform="translate(-63.539 -153.691)">
    <rect id="Rectangle_3" data-name="Rectangle 3" width="97.504" height="208.264" rx="8.589" transform="translate(170.472 193.851)" fill="rgba(64,93,184,0.18)"/>
    <path id="Path_15" data-name="Path 15" d="M286.08,145H205.134a8.278,8.278,0,0,0-8.279,8.279v8.387h97.5v-8.387A8.278,8.278,0,0,0,286.08,145Z" transform="translate(-26.383 48.848)" fill="#2d3e74"/>
    <path id="Path_16" data-name="Path 16" d="M196.855,343.461v10.555a8.279,8.279,0,0,0,8.279,8.279H286.08a8.279,8.279,0,0,0,8.279-8.279V343.461Z" transform="translate(-26.383 39.819)" fill="#2d3e74"/>
    <rect id="Rectangle_4" data-name="Rectangle 4" width="37.333" height="37.333" rx="7.402" transform="translate(222.424 215.74)" fill="#2d3e74"/>
    <rect id="Rectangle_5" data-name="Rectangle 5" width="37.333" height="37.333" rx="7.402" transform="translate(222.424 328.135)" fill="#afc6f5"/>
    <rect id="Rectangle_6" data-name="Rectangle 6" width="37.333" height="37.333" rx="7.402" transform="translate(178.492 328.135)" fill="#afc6f5"/>
    <line id="Line_2" data-name="Line 2" x2="105.063" transform="translate(170.055 403.068)" fill="none" stroke="#0a5de2" stroke-linecap="round" stroke-miterlimit="10" stroke-width="2" opacity="0.5"/>
    <g id="Group_23" data-name="Group 23" transform="translate(254.598 326.973)">
      <g id="Group_12" data-name="Group 12" transform="translate(13.499 1.118)">
        <g id="Group_4" data-name="Group 4" transform="translate(23.5 0)">
          <rect id="Rectangle_7" data-name="Rectangle 7" width="0.964" height="78.059" transform="translate(0 0.158) rotate(-9.437)" fill="#1f1f89"/>
        </g>
        <g id="Group_5" data-name="Group 5" transform="translate(0 0)">
          <rect id="Rectangle_8" data-name="Rectangle 8" width="0.964" height="78.059" transform="translate(0 0.158) rotate(-9.438)" fill="#1f1f89"/>
        </g>
        <g id="Group_6" data-name="Group 6" transform="translate(3.203 15.962)">
          <rect id="Rectangle_9" data-name="Rectangle 9" width="23.709" height="0.964" fill="#1f1f89"/>
        </g>
        <g id="Group_7" data-name="Group 7" transform="translate(4.882 26.244)">
          <rect id="Rectangle_10" data-name="Rectangle 10" width="23.71" height="0.964" fill="#1f1f89"/>
        </g>
        <g id="Group_8" data-name="Group 8" transform="translate(6.561 36.525)">
          <rect id="Rectangle_11" data-name="Rectangle 11" width="23.709" height="0.964" fill="#1f1f89"/>
        </g>
        <g id="Group_9" data-name="Group 9" transform="translate(8.239 46.805)">
          <rect id="Rectangle_12" data-name="Rectangle 12" width="23.709" height="0.964" fill="#1f1f89"/>
        </g>
        <g id="Group_10" data-name="Group 10" transform="translate(9.917 57.087)">
          <rect id="Rectangle_13" data-name="Rectangle 13" width="23.709" height="0.964" fill="#1f1f89"/>
        </g>
        <g id="Group_11" data-name="Group 11" transform="translate(11.596 67.368)">
          <rect id="Rectangle_14" data-name="Rectangle 14" width="23.71" height="0.964" fill="#1f1f89"/>
        </g>
      </g>
      <g id="Group_21" data-name="Group 21" transform="translate(0 1.119)">
        <g id="Group_13" data-name="Group 13" transform="translate(0 0)">
          <rect id="Rectangle_15" data-name="Rectangle 15" width="78.059" height="0.964" transform="translate(0 77.001) rotate(-80.556)" fill="#3878ff"/>
        </g>
        <g id="Group_14" data-name="Group 14" transform="translate(23.497 0)">
          <rect id="Rectangle_16" data-name="Rectangle 16" width="78.059" height="0.964" transform="matrix(0.164, -0.986, 0.986, 0.164, 0, 77)" fill="#3878ff"/>
        </g>
        <g id="Group_15" data-name="Group 15" transform="translate(10.342 15.962)">
          <rect id="Rectangle_17" data-name="Rectangle 17" width="23.709" height="0.964" fill="#3878ff"/>
        </g>
        <g id="Group_16" data-name="Group 16" transform="translate(8.663 26.243)">
          <rect id="Rectangle_18" data-name="Rectangle 18" width="23.709" height="0.964" fill="#3878ff"/>
        </g>
        <g id="Group_17" data-name="Group 17" transform="translate(6.984 36.524)">
          <rect id="Rectangle_19" data-name="Rectangle 19" width="23.71" height="0.964" fill="#3878ff"/>
        </g>
        <g id="Group_18" data-name="Group 18" transform="translate(5.306 46.805)">
          <rect id="Rectangle_20" data-name="Rectangle 20" width="23.71" height="0.964" fill="#3878ff"/>
        </g>
        <g id="Group_19" data-name="Group 19" transform="translate(3.627 57.086)">
          <rect id="Rectangle_21" data-name="Rectangle 21" width="23.709" height="0.964" fill="#3878ff"/>
        </g>
        <g id="Group_20" data-name="Group 20" transform="translate(1.949 67.367)">
          <rect id="Rectangle_22" data-name="Rectangle 22" width="23.709" height="0.964" fill="#3878ff"/>
        </g>
      </g>
      <g id="Group_22" data-name="Group 22" transform="translate(11.362)">
        <rect id="Rectangle_23" data-name="Rectangle 23" width="28.916" height="2.892" fill="#0a5de2"/>
      </g>
    </g>
    <path id="Path_30" data-name="Path 30" d="M256.722,217.451a2.657,2.657,0,1,1-3.43-1.532A2.657,2.657,0,0,1,256.722,217.451Z" transform="translate(-28.324 46.467)" fill="#afc6f5"/>
    <rect id="Rectangle_26" data-name="Rectangle 26" width="37.333" height="37.333" rx="7.402" transform="translate(184.225 283.858) rotate(-80.042)" fill="#2d3e74"/>
    <g id="Group_26" data-name="Group 26" transform="translate(110.708 358.824)">
      <path id="Path_31" data-name="Path 31" d="M134.519,338.451h16.707a.965.965,0,0,0,.707-1.619l-16.065-17.349-1.414,1.309,14.565,15.731h-14.5Z" transform="translate(-134.454 -319.483)" fill="#3878ff"/>
    </g>
    <path id="Path_32" data-name="Path 32" d="M256.243,217.812l7.17,2.8,20.854,1.972-6.962,4.913-14.651-3.519-7.489-3.431Z" transform="translate(-28.519 45.674)" fill="#afc6f5"/>
    <path id="Path_33" data-name="Path 33" d="M282,214.391a5.848,5.848,0,1,1-7.552-3.373A5.848,5.848,0,0,1,282,214.391Z" transform="translate(-29.087 45.976)" fill="#afc6f5"/>
    <path id="Path_34" data-name="Path 34" d="M304.746,239.621l-2.406,24.333.8,21.392h-8.289l-.446-1.593,5.682-.758-3.031-18.941L294.325,240.5Z" transform="translate(-30.055 44.599)" fill="#2d3e74"/>
    <path id="Path_35" data-name="Path 35" d="M252.785,220.434c3.056,1.242,13.311,3.97,16.6,3.705l6.883-.557,7.116-1.875,15.628,7.661-8.329,11.543-14.24-11.845-8.415-.374c-3.46-.153-13.276-3.9-16.256-5.664Z" transform="translate(-28.435 45.529)" fill="#afc6f5"/>
    <path id="Path_36" data-name="Path 36" d="M283.01,212.879c-1.217-2.755-6.11-3.428-8.834-2.144a5.145,5.145,0,0,0-.457.275,2.952,2.952,0,0,0,.384,1.247,5.133,5.133,0,0,0,3.885,2.306s.116.3.287.772a1.694,1.694,0,0,1,.618-.465,2.129,2.129,0,0,1,1.333-.037c1.4.4,1.393,2.366.427,3.21a3.12,3.12,0,0,1-1.085.588c-.047.016-.1.02-.147.034-.127,1.894-.012,2.115.4,2.707C282.048,219.737,284.615,216.509,283.01,212.879Z" transform="translate(-29.201 46)" fill="#1f1f89"/>
    <path id="Path_37" data-name="Path 37" d="M330.172,236.033l-13.985,6.092L300.08,229.747l-8.262,11.333,24.358,7.477,14.418-9.669,3.064,3.423,1.035-1Z" transform="translate(-30.048 45.134)" fill="#2d3e74"/>
    <path id="Path_38" data-name="Path 38" d="M253.521,220.275a2.656,2.656,0,1,1-3.43-1.532A2.656,2.656,0,0,1,253.521,220.275Z" transform="translate(-28.199 45.655)" fill="#afc6f5"/>
    <g id="Group_28" data-name="Group 28" transform="translate(109.914 198.495)">
      <path id="Path_39" data-name="Path 39" d="M133.628,150.587h18.859V340.151H133.628Zm16.931,1.928h-15V338.224h15Z" transform="translate(-133.628 -150.587)" fill="#7da7ff"/>
    </g>
    <rect id="Rectangle_27" data-name="Rectangle 27" width="24.022" height="17.214" transform="translate(131.36 391.902) rotate(180)" fill="#f7f5ef"/>
    <g id="Group_29" data-name="Group 29" transform="translate(110.708 289.857)">
      <path id="Path_40" data-name="Path 40" d="M134.519,264.54h16.707a.965.965,0,0,0,.707-1.619l-16.065-17.349-1.414,1.309,14.565,15.731h-14.5Z" transform="translate(-134.454 -245.572)" fill="#3878ff"/>
    </g>
    <g id="Group_30" data-name="Group 30" transform="translate(110.708 307.099)">
      <path id="Path_41" data-name="Path 41" d="M134.519,283.017h16.707a.964.964,0,0,0,.707-1.618L135.868,264.05l-1.414,1.309,14.565,15.73h-14.5Z" transform="translate(-134.454 -264.05)" fill="#3878ff"/>
    </g>
    <g id="Group_31" data-name="Group 31" transform="translate(110.708 324.34)">
      <path id="Path_42" data-name="Path 42" d="M134.519,301.495h16.707a.965.965,0,0,0,.707-1.619l-16.065-17.349-1.414,1.31,14.565,15.73h-14.5Z" transform="translate(-134.454 -282.527)" fill="#3878ff"/>
    </g>
    <g id="Group_32" data-name="Group 32" transform="translate(110.708 341.582)">
      <path id="Path_43" data-name="Path 43" d="M134.519,319.973h16.707a.965.965,0,0,0,.707-1.619l-16.065-17.349-1.414,1.31,14.565,15.731h-14.5Z" transform="translate(-134.454 -301.005)" fill="#3878ff"/>
    </g>
    <g id="Group_33" data-name="Group 33" transform="translate(110.708 273.029)">
      <path id="Path_44" data-name="Path 44" d="M134.519,246.506h16.707a.964.964,0,0,0,.707-1.618l-16.065-17.35-1.414,1.309,14.565,15.731h-14.5Z" transform="translate(-134.454 -227.538)" fill="#3878ff"/>
    </g>
    <g id="Group_34" data-name="Group 34" transform="translate(110.708 256.17)">
      <path id="Path_45" data-name="Path 45" d="M134.519,228.439h16.707a.964.964,0,0,0,.707-1.618l-16.065-17.35-1.414,1.309,14.565,15.731h-14.5Z" transform="translate(-134.454 -209.471)" fill="#3878ff"/>
    </g>
    <g id="Group_35" data-name="Group 35" transform="translate(110.708 239.343)">
      <path id="Path_46" data-name="Path 46" d="M134.519,210.405h16.707a.964.964,0,0,0,.707-1.618l-16.065-17.35-1.414,1.309,14.565,15.731h-14.5Z" transform="translate(-134.454 -191.437)" fill="#3878ff"/>
    </g>
    <g id="Group_36" data-name="Group 36" transform="translate(110.708 222.515)">
      <path id="Path_47" data-name="Path 47" d="M134.519,192.371h16.707a.964.964,0,0,0,.707-1.618L135.868,173.4l-1.414,1.309,14.565,15.731h-14.5Z" transform="translate(-134.454 -173.403)" fill="#3878ff"/>
    </g>
    <g id="Group_37" data-name="Group 37" transform="translate(110.708 205.686)">
      <path id="Path_48" data-name="Path 48" d="M134.519,174.337h16.707a.965.965,0,0,0,.707-1.619l-16.065-17.35-1.414,1.31,14.565,15.731h-14.5Z" transform="translate(-134.454 -155.368)" fill="#3878ff"/>
    </g>
    <g id="Group_38" data-name="Group 38" transform="translate(110.708 189.114)">
      <path id="Path_49" data-name="Path 49" d="M134.519,156.3h16.707a.964.964,0,0,0,.707-1.618l-16.065-17.35-1.414,1.309,14.565,15.731h-14.5Z" transform="translate(-134.454 -137.335)" fill="#3878ff"/>
    </g>
    <rect id="Rectangle_28" data-name="Rectangle 28" width="30.573" height="25.774" transform="translate(140.511 208.542) rotate(180)" fill="#2d3e74"/>
    <rect id="Rectangle_29" data-name="Rectangle 29" width="30.573" height="14.805" transform="translate(94.729 197.647) rotate(180)" fill="#2d3e74"/>
    <g id="Group_39" data-name="Group 39" transform="translate(63.7 182.881)">
      <path id="Path_50" data-name="Path 50" d="M86.485,132.513H237.491a.964.964,0,1,0,0-1.928H86.485a.964.964,0,1,0,0,1.928Z" transform="translate(-85.521 -130.585)" fill="#7da7ff"/>
    </g>
    <g id="Group_40" data-name="Group 40" transform="translate(207.246 187.756)">
      <rect id="Rectangle_30" data-name="Rectangle 30" width="0.964" height="62.652" fill="#7da7ff"/>
    </g>
    <path id="Path_51" data-name="Path 51" d="M142.521,130.919" transform="translate(-24.05 52.289)" fill="#b0d8ff"/>
    <g id="Group_41" data-name="Group 41" transform="translate(124.498 175.537)">
      <path id="Path_52" data-name="Path 52" d="M149.386,131.981a.477.477,0,0,0,.34-.142l8.052-8.051H231.6l7.569,7.569a.482.482,0,1,0,.681-.681L232,122.824H157.379l-8.335,8.334a.482.482,0,0,0,.341.823Z" transform="translate(-148.904 -122.824)" fill="#7da7ff"/>
    </g>
    <g id="Group_42" data-name="Group 42" transform="translate(63.539 168.216)">
      <path id="Path_53" data-name="Path 53" d="M85.835,131.7a.483.483,0,0,0,.428-.259l8.058-15.393h19.542l7.576,14.906a.482.482,0,0,0,.86-.437l-7.845-15.434H93.737L85.409,131a.483.483,0,0,0,.426.706Z" transform="translate(-85.354 -115.085)" fill="#7da7ff"/>
    </g>
    <path id="Path_54" data-name="Path 54" d="M231.743,136.12a3.534,3.534,0,1,0,3.534-3.535A3.534,3.534,0,0,0,231.743,136.12Z" transform="translate(-27.55 52.145)" fill="#f7f5ef"/>
    <g id="Group_43" data-name="Group 43" transform="translate(81.616 154.233)">
      <path id="Path_55" data-name="Path 55" d="M209.77,122.964a.482.482,0,0,0,.141-.943l-71.359-21.759a.485.485,0,0,0-.328.017L104.4,114.555a.482.482,0,1,0,.375.888l33.66-14.206,71.191,21.706A.479.479,0,0,0,209.77,122.964Z" transform="translate(-104.108 -100.243)" fill="#7da7ff"/>
    </g>
    <g id="Group_44" data-name="Group 44" transform="translate(108.985 153.691)">
      <path id="Path_56" data-name="Path 56" d="M150.67,131.21a.951.951,0,0,0,.342-.064.963.963,0,0,0,.558-1.243l-11.236-29.566a.964.964,0,0,0-1.846.152l-5.808,28.836a.964.964,0,1,0,1.89.38l5.148-25.561,10.05,26.444A.964.964,0,0,0,150.67,131.21Z" transform="translate(-132.661 -99.716)" fill="#7da7ff"/>
    </g>
    <g id="Group_45" data-name="Group 45" transform="translate(196.526 175.536)">
      <path id="Path_58" data-name="Path 58" d="M224.253,132.072a.474.474,0,0,0,.3-.108l9.465-7.65v7.154a.482.482,0,0,0,.964,0v-8.162a.482.482,0,0,0-.786-.375l-10.25,8.285a.482.482,0,0,0,.3.857Z" transform="translate(-223.771 -122.823)" fill="#7da7ff"/>
    </g>
    <g id="Group_46" data-name="Group 46" transform="translate(187.403 175.536)">
      <path id="Path_59" data-name="Path 59" d="M214.758,132.072a.476.476,0,0,0,.3-.108l9.464-7.65v7.154a.482.482,0,0,0,.964,0v-8.162a.481.481,0,0,0-.785-.375l-10.25,8.285a.482.482,0,0,0,.3.857Z" transform="translate(-214.275 -122.823)" fill="#3878ff"/>
    </g>
    <g id="Group_47" data-name="Group 47" transform="translate(178.279 175.536)">
      <path id="Path_60" data-name="Path 60" d="M205.262,132.072a.476.476,0,0,0,.3-.108l9.465-7.65v7.154a.482.482,0,1,0,.964,0v-8.162a.482.482,0,0,0-.785-.375l-10.25,8.285a.482.482,0,0,0,.3.857Z" transform="translate(-204.779 -122.823)" fill="#7da7ff"/>
    </g>
    <g id="Group_48" data-name="Group 48" transform="translate(169.157 175.536)">
      <path id="Path_61" data-name="Path 61" d="M195.767,132.072a.476.476,0,0,0,.3-.108l9.464-7.65v7.154a.482.482,0,0,0,.964,0v-8.162a.481.481,0,0,0-.785-.375l-10.25,8.285a.482.482,0,0,0,.3.857Z" transform="translate(-195.284 -122.823)" fill="#7da7ff"/>
    </g>
    <g id="Group_49" data-name="Group 49" transform="translate(160.034 175.536)">
      <path id="Path_62" data-name="Path 62" d="M186.271,132.072a.472.472,0,0,0,.3-.108l9.465-7.65v7.154a.482.482,0,1,0,.964,0v-8.162a.481.481,0,0,0-.785-.375l-10.25,8.285a.482.482,0,0,0,.3.857Z" transform="translate(-185.789 -122.823)" fill="#7da7ff"/>
    </g>
    <g id="Group_50" data-name="Group 50" transform="translate(150.911 175.536)">
      <path id="Path_63" data-name="Path 63" d="M176.776,132.072a.476.476,0,0,0,.3-.108l9.465-7.65v7.154a.482.482,0,1,0,.964,0v-8.162a.482.482,0,0,0-.786-.375l-10.25,8.285a.482.482,0,0,0,.3.857Z" transform="translate(-176.293 -122.823)" fill="#7da7ff"/>
    </g>
    <g id="Group_51" data-name="Group 51" transform="translate(141.788 175.536)">
      <path id="Path_64" data-name="Path 64" d="M167.281,132.072a.476.476,0,0,0,.3-.108l9.465-7.65v7.154a.482.482,0,0,0,.964,0v-8.162a.482.482,0,0,0-.786-.375l-10.25,8.285a.482.482,0,0,0,.3.857Z" transform="translate(-166.798 -122.823)" fill="#3878ff"/>
    </g>
    <g id="Group_52" data-name="Group 52" transform="translate(132.665 175.536)">
      <path id="Path_65" data-name="Path 65" d="M157.785,132.072a.476.476,0,0,0,.3-.108l9.465-7.65v7.154a.482.482,0,0,0,.964,0v-8.162a.482.482,0,0,0-.786-.375l-10.25,8.285a.482.482,0,0,0,.3.857Z" transform="translate(-157.302 -122.823)" fill="#7da7ff"/>
    </g>
    <g id="Group_53" data-name="Group 53" transform="translate(78.783 168.444)">
      <path id="Path_66" data-name="Path 66" d="M101.65,131.8a.479.479,0,0,0,.368-.171l12.293-14.507V131.2a.482.482,0,1,0,.964,0V115.809a.482.482,0,0,0-.85-.311l-13.141,15.511a.482.482,0,0,0,.366.793Z" transform="translate(-101.169 -115.327)" fill="#7da7ff"/>
    </g>
    <g id="Group_54" data-name="Group 54" transform="translate(69.328 168.445)">
      <path id="Path_67" data-name="Path 67" d="M91.842,131.8a.482.482,0,0,0,.4-.216l9.367-14.173V131.2a.482.482,0,1,0,.964,0V115.809a.482.482,0,0,0-.884-.266L91.44,131.054a.482.482,0,0,0,.4.748Z" transform="translate(-91.36 -115.328)" fill="#7da7ff"/>
    </g>
    <path id="Path_68" data-name="Path 68" d="M232.261,202.471a3.035,3.035,0,1,0,3.034-3.034A3.035,3.035,0,0,0,232.261,202.471Z" transform="translate(-27.569 47.532)" fill="#1f1f89"/>
    <line id="Line_6" data-name="Line 6" x2="73.254" transform="translate(241.285 404.4)" fill="none" stroke="#0a5de2" stroke-linecap="round" stroke-miterlimit="10" stroke-width="2" opacity="0.5"/>
    <rect id="Rectangle_33" data-name="Rectangle 33" width="37.333" height="37.333" rx="7.402" transform="translate(135.988 286.358)" fill="#2d3e74"/>
    <path id="Path_83" data-name="Path 83" d="M169.826,343.544l-2.811-28.914L163.4,283.707l2.811-.4,6.426,29.316,10.04.8,10.441-29.717,2.811.4-7.63,31.726.4,26.906Z" transform="translate(-24.9 40.301)" fill="#f7f5ef"/>
    <path id="Path_84" data-name="Path 84" d="M167.8,281.966a2.41,2.41,0,1,1-2.41-2.41A2.41,2.41,0,0,1,167.8,281.966Z" transform="translate(-24.854 40.758)" fill="#afc6f5"/>
    <path id="Path_85" data-name="Path 85" d="M196.967,282.8a2.41,2.41,0,1,1-2.41-2.41A2.409,2.409,0,0,1,196.967,282.8Z" transform="translate(-25.996 40.723)" fill="#afc6f5"/>
    <path id="Path_86" data-name="Path 86" d="M184.327,304.375a6.128,6.128,0,1,1-6.128-6.128A6.128,6.128,0,0,1,184.327,304.375Z" transform="translate(-25.218 39.925)" fill="#afc6f5"/>
    <path id="Path_87" data-name="Path 87" d="M184.327,305.375a6.128,6.128,0,1,1-6.128-6.128A6.128,6.128,0,0,1,184.327,305.375Z" transform="translate(-25.218 39.882)" fill="#2d3e74"/>
    <path id="Path_88" data-name="Path 88" d="M188.921,344.792l-2.786,44.35h-3.069l-2.605-43.989-2.74.116-1.676,44.958-2.367-.055L170.046,345.6l-.534-5.492,19.342.252Z" transform="translate(-25.126 37.854)" fill="#2d3e74"/>
    <path id="Path_89" data-name="Path 89" d="M186.631,390.98l6.746.743-.244,1.046h-9.879l.309-1.789Z" transform="translate(-25.654 36.016)" fill="#3878ff"/>
    <path id="Path_90" data-name="Path 90" d="M175.943,392.1v1.26l-9.266.35v-1.159l6.9-.506Z" transform="translate(-25.003 35.978)" fill="#3878ff"/>
    <line id="Line_7" data-name="Line 7" x2="53.975" transform="translate(130.949 429.43)" fill="none" stroke="#0a5de2" stroke-linecap="round" stroke-miterlimit="10" stroke-width="2" opacity="0.5"/>
    <g id="Group_70" data-name="Group 70" transform="translate(145.715 293.742)">
      <path id="Path_13" data-name="Path 13" d="M109.83,299.38c0,5.229-9.468,19.107-9.468,19.107s-9.467-13.878-9.467-19.107a9.468,9.468,0,0,1,18.935,0Z" transform="translate(-90.895 -289.913)" fill="#fff"/>
      <path id="Path_14" data-name="Path 14" d="M105.084,298.746a4.536,4.536,0,1,1-4.537-4.536A4.536,4.536,0,0,1,105.084,298.746Z" transform="translate(-91.08 -290.068)" fill="#2d3e74"/>
    </g>
    <g id="Group_71" data-name="Group 71" transform="translate(197.824 256.301) rotate(8)">
      <g id="Group_56" data-name="Group 56" transform="translate(0 0)">
        <path id="Path_81" data-name="Path 81" d="M9.774,4.887A4.887,4.887,0,1,1,4.887,0,4.887,4.887,0,0,1,9.774,4.887Z" transform="translate(4.227 0)" fill="#f7f5ef"/>
        <path id="Path_82" data-name="Path 82" d="M18.716,9.2A9.359,9.359,0,0,0,0,9.2Z" transform="translate(0 10.506)" fill="#f7f5ef"/>
      </g>
    </g>
  </g>
</svg>
