<svg xmlns="http://www.w3.org/2000/svg" width="270" height="288" viewBox="0 0 270 288">
  <g id="Group_2175" data-name="Group 2175" transform="translate(-52 -144.138)">
    <g id="Shadow" transform="translate(68 379.314)">
      <g id="Group_2171" data-name="Group 2171" opacity="0.4">
        <path id="Path_4376" data-name="Path 4376" d="M196.843,681.436a110.8,110.8,0,0,0-22.3,1.942c-2.8.592-5.541,1.887-8.348,2.407-5.6,1.046-11.11,2.993-16.736,3.873-4.528.725-9.076,1.151-13.593,2.069a25.718,25.718,0,0,1-13.124-.763c-3.111-1.051-6.237-1.66-9.3-3.32-3.43-1.892-7.124-3.242-10.7-3.192-5.084.066-10.026.078-14.9,3.414a16.522,16.522,0,0,0-5.095,5.533c-2.979,5.665-3.38,19.724-.417,25.567,4.992,9.81,15.649,13.682,22.646,13.871,7.667.2,15.116-.88,22.8-1.51,7.124-.587,14.247-1.427,21.4-1.394,14.6.055,29.2,0,43.769-1.848,13.691-1.732,27.416-1.14,41.136-1.14,14.071,0,28.046.21,42.014,3.751,6.084,1.538,12.284,2.08,18.4,3.159,5.477.968,10.741,0,16.2-.913a26.222,26.222,0,0,0,13.3-6.739c3.3-2.982,9.169-12.238,10.179-19.365,2.834-19.918-39.919-19.464-46.484-19.414-7.343.05-14.743.5-22.081,0a29.985,29.985,0,0,1-9.139-2.611c-3.01-1.25-6.024-.93-9.068-1.455-12.688-2.18-25.405-1.865-38.133-1.865C205.122,681.481,200.977,681.414,196.843,681.436Z" transform="translate(-80.305 -681.432)" fill="#f1f2f2"/>
      </g>
    </g>
    <path id="Path_4391" data-name="Path 4391" d="M782.731,372.238l-3.169-1.709-.857-3.06-.739-.145-.218.9-1.442-2.33-2.108-.716-2.4,1.732-.857,2.933,1.967,2.2,3.341,1.1,4.234,2.534Z" transform="translate(-557.474 -135.484)" fill="#f7c9a9"/>
    <path id="Path_4392" data-name="Path 4392" d="M788.89,363.994l18.645,13.033,19.076-20.477,2.271,23.228L810.291,392l-24.8-21.868Z" transform="translate(-565.463 -130.777)" fill="#2d3e74"/>
    <path id="Path_4393" data-name="Path 4393" d="M930.764,744.3l.317,3.132-5.7,3.912-3.323-2.752,2.688-3.522,5.694-3.908Z" transform="translate(-640.199 -341.509)" fill="#1a3151"/>
    <path id="Path_4394" data-name="Path 4394" d="M912.814,535.337l.966,9.52-8.541,32.721,7.929,52.577-5.839,2.013-15.395-51.33L889.49,565.9l.086-31.61Z" transform="translate(-622.394 -228.419)" fill="#3878ff" opacity="0.65"/>
    <path id="Path_4395" data-name="Path 4395" d="M841.88,550.35l12.281,88.1h5.58l1.006-56.471,10.159-39.639Z" transform="translate(-596.308 -232.82)" fill="#7da7ff"/>
    <path id="Path_4396" data-name="Path 4396" d="M870.293,752.81v3.164l-6.038,3.164-3.015-3.164,3.015-3.164Z" transform="translate(-606.884 -347.878)" fill="#1a3151"/>
    <path id="Path_4397" data-name="Path 4397" d="M838.389,356.518a5.015,5.015,0,0,1,1.845-1.813c5.544-3.132,14.738-.376,20.758-.376,1.777,18.731,6.7,36.592,9.869,55q5.059,29.294,11.392,58.343c.24,1.1-16.75.544-18.351.571-16.347.277-37.739.218-53.492-4.724,10.064-27.018,13.74-56.09,21.664-83.811,1.392-4.869,3.046-9.665,4.3-14.57C837.079,362.275,836.97,358.844,838.389,356.518Z" transform="translate(-579.163 -129.048)" fill="#2d3e74"/>
    <path id="Path_4398" data-name="Path 4398" d="M875.3,291.753a11.011,11.011,0,0,0-7.847,9.225,9.692,9.692,0,0,1,2.135-15.7,11.23,11.23,0,0,1,5.4,6.546Z" transform="translate(-608.593 -91.716)" fill="#21196f"/>
    <path id="Path_4399" data-name="Path 4399" d="M869.255,302.41c2.135-11.283,16.238-9.334,20.282-.195,2.3,5.2-.109,12.553-4.71,16.17-.1,1-.231,3.758-.993,4.424-.83.725-3.436.032-4.456-.2a1.569,1.569,0,0,1-.784-.349,2.935,2.935,0,0,1-.3-1.714,9.213,9.213,0,0,1-2.3-.453,10.914,10.914,0,0,1-6.637-7.421A21.912,21.912,0,0,1,869.255,302.41Z" transform="translate(-610.975 -96.851)" fill="#f7c9a9"/>
    <path id="Path_4400" data-name="Path 4400" d="M893.179,339.419a.967.967,0,0,1-.326-.032c-2.484-.426-6.478-1.233-7.63-3.853s.907-7.557,1.265-10.345c.526-4.243.7-8.522.907-12.788a19.5,19.5,0,0,0-3.2-10.921,60,60,0,0,0-7.253-8.98,9.056,9.056,0,0,1-2.52-4.016,5.938,5.938,0,0,1,1.469-4.919,8.337,8.337,0,0,1,6.505-3.173c9.325-.227,16.32,5.29,18.985,14.4,3.79,13.051-.948,25.5-.24,38.492a12.393,12.393,0,0,0,2.094,6.238C902.921,339.03,895.188,339.533,893.179,339.419Z" transform="translate(-614.102 -89.057)" fill="#21196f"/>
    <circle id="Ellipse_30" data-name="Ellipse 30" cx="36.325" cy="36.325" r="36.325" transform="translate(179.985 265.635) rotate(-45)" fill="#ffd559"/>
    <circle id="Ellipse_31" data-name="Ellipse 31" cx="30.831" cy="30.831" r="30.831" transform="translate(187.832 265.629) rotate(-45)" fill="#ebb044"/>
    <g id="Group_2172" data-name="Group 2172" transform="translate(206.628 238.274)" opacity="0.09">
      <path id="Path_4401" data-name="Path 4401" d="M795.047,384.26a30.826,30.826,0,0,1-39.126,45.623,30.826,30.826,0,1,0,39.126-45.623Z" transform="translate(-755.92 -384.26)" fill="#999"/>
    </g>
    <path id="Path_4402" data-name="Path 4402" d="M752.542,416.307A27.2,27.2,0,0,1,800.1,396.47,27.2,27.2,0,1,0,757.067,429.6,27.113,27.113,0,0,1,752.542,416.307Z" transform="translate(-546.281 -146.154)" fill="#ffd559"/>
    <path id="Path_4403" data-name="Path 4403" d="M800.357,400.39l.268,3.921a8.273,8.273,0,0,1,3.962,1.3,12.087,12.087,0,0,1,3.105,3.427l-3.754,2.443q-1.977-3.083-4.814-2.888a4.207,4.207,0,0,0-2.847,1.233,3.341,3.341,0,0,0-.984,2.679,3.173,3.173,0,0,0,1.1,2.294,13.588,13.588,0,0,0,3.867,1.931,36.94,36.94,0,0,1,4.139,1.813,10.612,10.612,0,0,1,2.5,1.709,8.382,8.382,0,0,1,2.661,5.744,9.48,9.48,0,0,1-1.623,6.12,9.869,9.869,0,0,1-5.163,3.844l.281,4.139-3.5.236-.272-4.016a10.641,10.641,0,0,1-6.161-2.3,13.063,13.063,0,0,1-3.482-6.152l4.338-1.215a10.279,10.279,0,0,0,2.489,4.189,5.191,5.191,0,0,0,3.7,1,5.113,5.113,0,0,0,3.581-1.668,4.805,4.805,0,0,0,1.22-3.717,4.28,4.28,0,0,0-1.437-3.1,11.281,11.281,0,0,0-1.918-1.188,31.84,31.84,0,0,0-3.173-1.383q-4-1.473-5.313-2.851a8.006,8.006,0,0,1-2.013-7.8,7.37,7.37,0,0,1,1.174-2.339,8.258,8.258,0,0,1,2.035-1.895,11.454,11.454,0,0,1,2.82-1.36l-.267-3.921Z" transform="translate(-567.713 -154.803)" fill="#ffd559"/>
    <path id="Path_4404" data-name="Path 4404" d="M887.155,448.594l-3.749,1.229-3.078-1.623-.676.476.553.857-2.942-.616-2.153,1.138-.44,3.219,1.686,2.9,3.241.1,3.391-1.831,5.2-1.455Z" transform="translate(-614.237 -180.962)" fill="#f7c9a9"/>
    <path id="Path_4405" data-name="Path 4405" d="M909.644,400.469a6,6,0,0,0,2.806-4.823,26.378,26.378,0,0,0-.707-6.143,50.553,50.553,0,0,1,.453-19.543c1.41-6.347,8.844,1.641,9.765,4.533,1.025,3.173.739,6.655.988,9.951q.5,6.632.453,13.292c0,2.806.68,9.434-2.267,11.038a8.056,8.056,0,0,1-2.611.73c-1.41.231-18.246,2.353-18.509,1.523l-2.326-7.339C901.19,402.953,906.444,402.636,909.644,400.469Z" transform="translate(-626.877 -136.824)" fill="#2d3e74"/>
    <path id="Path_4406" data-name="Path 4406" d="M919.009,444.975c-.5-.635-1.043-1.247-1.573-1.868a1.445,1.445,0,0,1-.354-.848c-.313-.177-.621-.358-.929-.539-1.859-1.093-3.581-2.443-5.517-3.4a7.022,7.022,0,0,1-1,.821c-3.21,2.167-8.454,2.484-11.959,3.2l2.326,7.339c.263.83,17.1-1.292,18.509-1.523a11.561,11.561,0,0,0,1.813-.39A23.7,23.7,0,0,1,919.009,444.975Z" transform="translate(-626.871 -175.553)" fill="#2d3e74"/>
    <path id="Path_4378" data-name="Path 4378" d="M390.19,389.712l4.474-4.4,7.058.168.8,3.577-10.658,4.606Z" transform="translate(-198.682 -142.134)" fill="#f7c9a9"/>
    <path id="Path_4379" data-name="Path 4379" d="M271.608,303.451c-.857-9.611-4.533-11.36-4.533-11.36h0a8.614,8.614,0,0,0-3.359-1.691,9.833,9.833,0,0,0-3.205,6.709h-.281a9.153,9.153,0,0,1,3.364.753c.807,5.725,2.044,14.842,2.09,17.507.063,3.971,1,4.048,3.676,4.919s5.494-1.36,5.494-1.36A58.357,58.357,0,0,1,271.608,303.451Z" transform="translate(-127.568 -90.153)" fill="#21196f"/>
    <path id="Path_4380" data-name="Path 4380" d="M191.323,346.142l-11.6,4.57-18.958,15.712L152.1,338.25l-10.567,1.9,6.773,34.4,11.106,10.023,31.964-17.607Z" transform="translate(-62.584 -116.385)" fill="#2d3e74"/>
    <path id="Path_4381" data-name="Path 4381" d="M226.888,736.388l-.308,3.033,5.5,3.781,3.21-2.656-2.593-3.4-5.5-3.781Z" transform="translate(-109.153 -332.858)" fill="#1a3151"/>
    <path id="Path_4382" data-name="Path 4382" d="M226.439,534.371l-.929,9.207,8.246,31.628L226.1,626.038l5.635,1.945,14.86-49.625,2.362-14.434-.086-30.563Z" transform="translate(-108.572 -223.523)" fill="#7da7ff"/>
    <path id="Path_4383" data-name="Path 4383" d="M289.395,548.883,277.54,634.058h-5.39l-.97-54.6-9.81-38.32Z" transform="translate(-128.198 -227.776)" fill="#7da7ff"/>
    <path id="Path_4384" data-name="Path 4384" d="M285.22,744.63v3.055l5.825,3.06,2.915-3.06-2.915-3.055Z" transform="translate(-141.241 -339.019)" fill="#1a3151"/>
    <path id="Path_4385" data-name="Path 4385" d="M219.7,423.927c4.6-30.985,2.96-53.547,3.2-59.744a12.947,12.947,0,0,1,4.483-9.411c1.863-.426,3.486-1.655,5.367-2.14,12.725-3.282,19.665,6.673,24.43,17.408a312.881,312.881,0,0,1,14.788,40.845c3.5,12.24,7,24.584,8.473,37.286.6,5.24,1.111,10.209-4.492,12.521-8.921,3.686-18.954,3.627-28.378,4.787-10.83,1.36-21.669,2.348-32.571,2.811C209.3,468.53,215.1,454.9,219.7,423.927Z" transform="translate(-101.539 -124.016)" fill="#2d3e74"/>
    <path id="Path_4386" data-name="Path 4386" d="M140.329,325.734l-4.769-4.778,1.623-8.4h4.606l1.355,7.312,2.335,1.405v3.531Z" transform="translate(-59.32 -102.284)" fill="#f7c9a9"/>
    <path id="Path_4387" data-name="Path 4387" d="M270.6,352l12.19,2.167,22,21.284,19.724-6.922,6.342,8.083-26.4,15.476-27.9-17.879Z" transform="translate(-133.265 -123.913)" fill="#2d3e74"/>
    <path id="Path_4388" data-name="Path 4388" d="M259.561,351.988l2.244,32.952-16.9-31.325,4.928-1.759,3.518-1.056Z" transform="translate(-119.186 -123.25)" fill="#7da7ff"/>
    <path id="Path_4389" data-name="Path 4389" d="M257.532,305.659c-4.2-9.148-15.758-4.533-17.263,4.112-.852,4.9,1.745,13.427,7.6,13.5.295.83.8,2.394,1.591,2.8s2.919-.694,3.74-1.111a1.4,1.4,0,0,0,.589-.453,2.575,2.575,0,0,0-.1-1.519,8.09,8.09,0,0,0,1.859-.87,9.616,9.616,0,0,0,4.08-7.706A19.127,19.127,0,0,0,257.532,305.659Z" transform="translate(-116.561 -95.77)" fill="#f7c9a9"/>
    <path id="Path_4390" data-name="Path 4390" d="M239.421,286.875s2.448,4.914-3.844,8.015-9.316,9.375-6.8,14.583,8.432,8.033,6.192,10.127-12.145,3.015-12.145,3.015-10.6-17.934-4.873-28.251S234.874,280.941,239.421,286.875Z" transform="translate(-103.507 -86.589)" fill="#21196f"/>
    <path id="Path_4407" data-name="Path 4407" d="M155.841,373.165a68.966,68.966,0,0,0,4.415-7.144,1.565,1.565,0,0,1,.267-.372l-8.427-27.4-10.567,1.9,6.773,34.4L152.8,378.6A55.611,55.611,0,0,1,155.841,373.165Z" transform="translate(-62.584 -116.379)" fill="#2d3e74"/>
    <path id="Path_4408" data-name="Path 4408" d="M180.819,223.732,99.094,244.585a3.2,3.2,0,0,1-3.867-2.316L82.189,191.092a3.2,3.2,0,0,1,2.267-3.885L166.2,166.386a3.2,3.2,0,0,1,3.867,2.316l13.038,51.153a3.2,3.2,0,0,1-2.289,3.876Z" transform="translate(-30.089 -22.153)" fill="#2d3e74"/>
    <rect id="Rectangle_537" data-name="Rectangle 537" width="15.862" height="11.882" rx="0.94" transform="translate(60.795 184.456) rotate(-14.3)" fill="#ebb044"/>
    <g id="Group_2173" data-name="Group 2173" transform="translate(64.127 185.291)" opacity="0.2">
      <path id="Path_4409" data-name="Path 4409" d="M123.283,261.776l-1.2-4.706c-2.829,4.533-9.239,8.051-13.242,9.9a2.09,2.09,0,0,0,1.65.267l11.265-2.87A2.131,2.131,0,0,0,123.283,261.776Z" transform="translate(-108.84 -257.07)" fill="#999"/>
    </g>
    <rect id="Rectangle_538" data-name="Rectangle 538" width="18.342" height="5.866" transform="translate(64.723 199.734) rotate(-14.3)" fill="#fff"/>
    <rect id="Rectangle_539" data-name="Rectangle 539" width="18.342" height="5.866" transform="translate(84.544 194.816) rotate(-14.3)" fill="#fff"/>
    <rect id="Rectangle_540" data-name="Rectangle 540" width="18.342" height="5.866" transform="translate(104.308 189.763) rotate(-14.3)" fill="#fff"/>
    <rect id="Rectangle_541" data-name="Rectangle 541" width="18.342" height="5.866" transform="translate(124.104 184.706) rotate(-14.3)" fill="#fff"/>
    <path id="Path_4410" data-name="Path 4410" d="M102.769,232.416a2.575,2.575,0,0,1-1.559,1.165,2.53,2.53,0,1,1,.675-4.628l.131.073.453-.753-.131-.086a3.445,3.445,0,1,0,1.2,4.665l.077-.141-.784-.417Z" transform="translate(-38.298 -55.716)" fill="#f3f3f3"/>
    <path id="Path_4411" data-name="Path 4411" d="M114.137,226.57a1.936,1.936,0,0,0-2.348-1.4l-2,.508,1.655,6.505.879-.222-.7-2.756.952-.24,2.063,2.407.988-.254-2.185-2.534A1.963,1.963,0,0,0,114.137,226.57Zm-.879.227a1.02,1.02,0,0,1-.739,1.242l-1.12.286-.508-1.986,1.124-.286A1.038,1.038,0,0,1,113.258,226.8Z" transform="translate(-45.232 -54.308)" fill="#f3f3f3"/>
    <path id="Path_4412" data-name="Path 4412" d="M121.425,229.265l3.445-.879-.227-.879-2.539.644-.617-2.421,2.217-.567-.227-.884-2.217.567-.363-1.433,2.539-.648-.227-.884-3.441.879Z" transform="translate(-50.688 -52.542)" fill="#f3f3f3"/>
    <path id="Path_4413" data-name="Path 4413" d="M130.572,220.421l-1.532.394,1.659,6.5,1.532-.39a3.358,3.358,0,1,0-1.659-6.505ZM132,226.047l-.653.163-1.206-4.737.653-.168a2.26,2.26,0,0,1,3.051,1.727A2.292,2.292,0,0,1,132,226.047Z" transform="translate(-55.756 -51.668)" fill="#f3f3f3"/>
    <rect id="Rectangle_542" data-name="Rectangle 542" width="0.907" height="6.714" transform="translate(78.837 167.725) rotate(-14.3)" fill="#f3f3f3"/>
    <path id="Path_4414" data-name="Path 4414" d="M144.217,217.271l1.614-.413,1.433,5.621.879-.227-1.432-5.621,1.609-.408-.222-.884-4.107,1.047Z" transform="translate(-63.929 -48.967)" fill="#f3f3f3"/>
    <path id="Path_4415" data-name="Path 4415" d="M165.751,216.271l-.082.118a2.53,2.53,0,1,1-2.811-3.74,2.561,2.561,0,0,1,1.927.277l.131.072.453-.753-.131-.082a3.391,3.391,0,0,0-2.625-.394,3.441,3.441,0,1,0,3.822,5.055l.077-.141Z" transform="translate(-72.689 -46.956)" fill="#f3f3f3"/>
    <path id="Path_4416" data-name="Path 4416" d="M176.316,208.891l-1.446,7.294.979-.249.426-2.176,2.756-.7,1.423,1.7.97-.245-4.751-5.716Zm2.067,3.391-1.909.485.453-2.267Z" transform="translate(-80.81 -45.391)" fill="#f3f3f3"/>
    <path id="Path_4417" data-name="Path 4417" d="M190.757,207.045a1.936,1.936,0,0,0-2.348-1.405l-2,.508,1.659,6.505.879-.222-.7-2.756.952-.24,2.067,2.407.988-.254-2.19-2.534A1.945,1.945,0,0,0,190.757,207.045Zm-.879.222a1.024,1.024,0,0,1-.734,1.242l-1.124.286-.5-1.986,1.12-.286a1.038,1.038,0,0,1,1.251.743Z" transform="translate(-87.119 -43.632)" fill="#f3f3f3"/>
    <path id="Path_4418" data-name="Path 4418" d="M197.942,203.258l-1.532.39,1.659,6.505,1.532-.39a3.2,3.2,0,0,0,2.5-4.121A3.162,3.162,0,0,0,197.942,203.258Zm3.278,2.611a2.294,2.294,0,0,1-1.845,3.01l-.653.168-1.206-4.742.653-.163a2.245,2.245,0,0,1,3.042,1.727Z" transform="translate(-92.644 -42.284)" fill="#f3f3f3"/>
    <rect id="Rectangle_543" data-name="Rectangle 543" width="38.796" height="1.777" transform="translate(106.777 199.491) rotate(-14.3)" fill="#fff"/>
  </g>
</svg>
