<svg xmlns="http://www.w3.org/2000/svg" xmlns:xlink="http://www.w3.org/1999/xlink" width="288" height="292.175" viewBox="0 0 288 292.175">
  <defs>
    <linearGradient id="linear-gradient" x1="1.084" y1="0.936" x2="-0.154" y2="0.132" gradientUnits="objectBoundingBox">
      <stop offset="0" stop-color="#2d3e74"/>
      <stop offset="1" stop-color="#2d3e74"/>
    </linearGradient>
    <linearGradient id="linear-gradient-2" x1="0.045" y1="0.566" x2="0.97" y2="0.573" gradientUnits="objectBoundingBox">
      <stop offset="0" stop-color="#295af6" stop-opacity="0.769"/>
      <stop offset="1" stop-color="#2d3e74"/>
    </linearGradient>
  </defs>
  <g id="Group_2182" data-name="Group 2182" transform="translate(-44 -111.829)">
    <g id="Group_2174" data-name="Group 2174" transform="translate(-4.553 1.163)">
      <g id="Shadow" transform="translate(48.553 350.017)">
        <g id="Group_2171" data-name="Group 2171" opacity="0.4">
          <path id="Path_4376" data-name="Path 4376" d="M208.145,681.436a133.017,133.017,0,0,0-24.463,1.942c-3.074.592-6.078,1.887-9.158,2.407-6.147,1.046-12.188,2.993-18.359,3.873-4.967.725-9.956,1.151-14.911,2.069a30.836,30.836,0,0,1-14.4-.763c-3.412-1.051-6.842-1.66-10.2-3.32a26.092,26.092,0,0,0-11.739-3.192c-5.577.066-11,.078-16.344,3.414A17.241,17.241,0,0,0,82.99,693.4c-3.268,5.665-3.708,19.724-.457,25.567,5.476,9.81,17.166,13.682,24.842,13.871,8.411.2,16.581-.88,25.007-1.51,7.815-.587,15.629-1.427,23.476-1.394,16.014.055,32.031,0,48.014-1.848,15.019-1.732,30.075-1.14,45.125-1.14,15.435,0,30.766.21,46.089,3.751,6.674,1.538,13.476,2.08,20.188,3.159,6.009.968,11.783,0,17.768-.913a29.9,29.9,0,0,0,14.584-6.739c3.615-2.982,10.058-12.238,11.166-19.365C361.9,686.919,315,687.373,307.8,687.423c-8.055.05-16.173.5-24.222,0a35.366,35.366,0,0,1-10.026-2.611c-3.3-1.25-6.608-.93-9.948-1.455-13.919-2.18-27.869-1.865-41.831-1.865C217.227,681.481,212.68,681.414,208.145,681.436Z" transform="translate(-80.305 -681.432)" fill="#f1f2f2"/>
        </g>
      </g>
      <path id="Path_4321" data-name="Path 4321" d="M477.277,388.243c8.478-.63,17.372,2.864,23.73,12.2,0-18.947,14.393-33.2,30.891-33.555,2.864,9.18,9.567,36.648-4.067,63.142H491.956a150.272,150.272,0,0,1-24.876-38.5,21.081,21.081,0,0,1,10.2-3.294Z" transform="translate(-272.049 -56.898)" fill="#2d3e74" opacity="0.15"/>
      <path id="Path_4325" data-name="Path 4325" d="M517.57,412.6l-17.744.129-.2-26.666-8.822.072L491,412.8l-17.744.129.057,8.822h44.324Z" transform="translate(-269.375 -48.615)" fill="#2d3e74"/>
      <path id="Path_4326" data-name="Path 4326" d="M574.332,252.791l5.1-7.877L570.293,239l-5.1,7.862-3.623,5.6-10.025,15.41c1.575.874,3.122,1.79,4.654,2.778s2.993,2.034,4.44,3.108l10.025-15.453A103.886,103.886,0,0,1,457.857,432.437l10.025-15.453c-1.575-.874-3.122-1.79-4.654-2.778s-2.993-2.034-4.44-3.108l-10.025,15.453-3.595,5.542-5.1,7.877,9.094,5.886,5.127-7.92A110.445,110.445,0,0,0,574.26,252.763Z" transform="translate(-283.758 -112.163)" fill="url(#linear-gradient)"/>
      <path id="Path_4327" data-name="Path 4327" d="M472.687,411.584a85.5,85.5,0,0,0,92.787-143.212c-1.432-1.074-2.864-2.12-4.439-3.108s-3.079-1.9-4.654-2.778A85.5,85.5,0,0,0,463.593,405.7c1.432,1.074,2.864,2.12,4.44,3.108S471.111,410.71,472.687,411.584Z" transform="translate(-288.505 -106.733)" fill="url(#linear-gradient-2)"/>
      <path id="Path_4336" data-name="Path 4336" d="M318.55,331.87s7.519,2.091,10.684,13.39,13.648,8.321,18.546,21.482-8.808,27.482-23.831,23.1-31.335-15.41-31.335-15.41-3.122-14.865,7.161-21.783,1.432-11.572,7.161-17.271" transform="translate(-138.518 -72.031)" fill="#21196f"/>
      <path id="Path_4337" data-name="Path 4337" d="M316.238,350.72s-10.54,0-34.528,33.841c8.263,9.037,17.3,0,17.3,0Z" transform="translate(-143.026 -63.886)" fill="#fcd2a8"/>
      <path id="Path_4338" data-name="Path 4338" d="M312.449,350.733s-15.983,7.361-15.983,23.63-5.986,27.21-5.986,27.21l30.905,21.31s17.744-40.873,15.753-58.4c-1.862-14.164-19.763-13.791-19.763-13.791" transform="translate(-139.244 -63.899)" fill="#fff"/>
      <path id="Path_4339" data-name="Path 4339" d="M305.357,385.549H257.624L247.9,350.72h47.718Z" transform="translate(-157.596 -63.886)" fill="#21196f"/>
      <rect id="Rectangle_535" data-name="Rectangle 535" width="47.718" height="2.592" transform="translate(110.897 319.071)" fill="#21196f"/>
      <path id="Path_4340" data-name="Path 4340" d="M309.987,357.79h0a4.167,4.167,0,0,0,4.167-4.167V345.56H305.82v8.063A4.167,4.167,0,0,0,309.987,357.79Z" transform="translate(-132.618 -66.116)" fill="#edc294"/>
      <path id="Path_4341" data-name="Path 4341" d="M309.995,354.106h0a7.719,7.719,0,0,1-7.7-7.69V342a7.719,7.719,0,0,1,7.7-7.7h0a7.719,7.719,0,0,1,7.69,7.7v4.411A7.7,7.7,0,0,1,309.995,354.106Z" transform="translate(-134.143 -70.981)" fill="#fbd5a8"/>
      <path id="Path_4342" data-name="Path 4342" d="M290,387.822s23.473,11.958,34.07,14.822,22.914-42.291,12.889-48.019-13.734,38.352-13.734,38.352-31.779-10.583-36.634-10.583-4.869.859-4.869,4.01S290,387.822,290,387.822Z" transform="translate(-143.026 -62.42)" fill="#fcd2a8"/>
      <path id="Path_4343" data-name="Path 4343" d="M226.74,412.456h15.753l3.9-4.826h-6.53C228.544,407.6,226.74,412.456,226.74,412.456Z" transform="translate(-166.74 -39.294)" fill="#21196f"/>
      <path id="Path_4344" data-name="Path 4344" d="M329.491,427.7a5.37,5.37,0,0,0,3.867-9.108c-13.3-15.753-41.331-46.243-58.6-46.243-23.243,0-38.825,50.525-38.825,50.525h6.53L269.5,389.464l40.4,33.941s4.167,4.3,7.4,4.3h12.76" transform="translate(-162.769 -54.539)" fill="#7da7ff"/>
      <path id="Path_4345" data-name="Path 4345" d="M237.15,412.456H252.9l3.91-4.826h-6.545C238.912,407.6,237.15,412.456,237.15,412.456Z" transform="translate(-162.242 -39.294)" fill="#21196f"/>
      <path id="Path_4346" data-name="Path 4346" d="M285.179,372.33c-23.258,0-38.839,50.525-38.839,50.525h6.545l27.024-33.411S312.1,427.71,326.367,427.71,340.459,413.6,340.459,413.6,308.437,372.33,285.179,372.33Z" transform="translate(-158.27 -54.548)" fill="#7da7ff"/>
      <path id="Path_4347" data-name="Path 4347" d="M311.321,331.38s-12.1.3-12.1,8.12,17.572,2.034,17.572,2.034l2.22,4.654h1.432S324.11,331.38,311.321,331.38Z" transform="translate(-135.468 -72.243)" fill="#21196f"/>
      <path id="Path_4348" data-name="Path 4348" d="M315.947,342.437a2.234,2.234,0,1,1-2.234-2.377,2.32,2.32,0,0,1,2.234,2.377Z" transform="translate(-130.173 -68.492)" fill="#fbd5a8"/>
    </g>
    <g id="Group_2178" data-name="Group 2178" transform="translate(-1766.547 -2169.547)">
      <circle id="Ellipse_23" data-name="Ellipse 23" cx="10.441" cy="10.441" r="10.441" transform="translate(1928.053 2307.677) rotate(-45)" fill="#2d3e74"/>
      <path id="Path_4270" data-name="Path 4270" d="M337.609,135.8a6.248,6.248,0,0,1-2.779.544,4.628,4.628,0,0,1-4.749-4.834,5.619,5.619,0,0,1,5.692-5.8,4.338,4.338,0,0,1,4.592,4.4c0,2.223-1.208,3.625-2.9,3.625a1.208,1.208,0,0,1-1.305-1.208h0a2.224,2.224,0,0,1-1.97,1.208c-.979,0-1.692-.725-1.692-1.97a3.468,3.468,0,0,1,3.553-3.541,4.254,4.254,0,0,1,1.813.375l-.459,2.816c-.157.894,0,1.305.375,1.317.665,0,1.474-.822,1.474-2.562a3.347,3.347,0,0,0-3.625-3.517,4.423,4.423,0,0,0-4.362,4.725,3.625,3.625,0,0,0,3.891,3.988,4.979,4.979,0,0,0,2.2-.483Zm-1.353-6.284a1.655,1.655,0,0,0-.471-.06,2.018,2.018,0,0,0-1.8,2.163c0,.568.266.943.761.943s1.208-.713,1.293-1.6Z" transform="translate(1607.672 2176.624)" fill="#fff"/>
    </g>
    <g id="Group_2177" data-name="Group 2177" transform="translate(-1884.344 -2110.344)">
      <path id="Path_4271" data-name="Path 4271" d="M406.611,143.33a12,12,0,1,1-13.749-9.943,12,12,0,0,1,13.749,9.943Z" transform="translate(1606 2175)" fill="#2d3e74"/>
      <path id="Path_4272" data-name="Path 4272" d="M392.949,151.143l-1.047-6.5-1.126.169-.315-1.926,1.126-.18v-.327a3.919,3.919,0,0,1,.608-3.007,3.5,3.5,0,0,1,2.252-1.216,5.27,5.27,0,0,1,1.419-.056l.225,2.038a2.872,2.872,0,0,0-.867,0c-.856.135-1.126.867-.98,1.689l.068.439,1.689-.282.315,1.937-1.678.27,1.047,6.5Z" transform="translate(1606.971 2175.611)" fill="#fff"/>
    </g>
    <g id="Group_2180" data-name="Group 2180" transform="translate(-1702.764 -2169.764)">
      <circle id="Ellipse_24" data-name="Ellipse 24" cx="12.424" cy="12.424" r="12.424" transform="translate(1828.37 2322.66)" fill="#2d3e74"/>
      <path id="Path_4273" data-name="Path 4273" d="M241.25,154.389a4.894,4.894,0,0,1-1.55.4,2.984,2.984,0,0,0,1.317-1.655,5.9,5.9,0,0,1-1.888.734,2.984,2.984,0,0,0-5.163,2.04,3.236,3.236,0,0,0,.07.676,8.461,8.461,0,0,1-6.154-3.123,3.019,3.019,0,0,0,.932,4,2.937,2.937,0,0,1-1.352-.385h0a2.984,2.984,0,0,0,2.331,2.925,2.866,2.866,0,0,1-.781.1,3.065,3.065,0,0,1-.571-.058,3.007,3.007,0,0,0,2.8,2.075,5.99,5.99,0,0,1-3.718,1.282,4.86,4.86,0,0,1-.711,0s1.165,1.527,4.953,2.051,10.489-2.063,8.158-9.592a5.163,5.163,0,0,0,1.329-1.469Z" transform="translate(1606.735 2175.87)" fill="#fff"/>
    </g>
    <g id="Group_2179" data-name="Group 2179" transform="translate(-1776.329 -2093.329)">
      <path id="Path_4275" data-name="Path 4275" d="M299.532,171.458a10.989,10.989,0,1,1-12.834-8.752,10.989,10.989,0,0,1,12.834,8.752Z" transform="translate(1606 2175)" fill="#2d3e74"/>
      <path id="Path_4276" data-name="Path 4276" d="M286.848,177.983l-1.608-8.473,7.649,2.948Z" transform="translate(1606.231 2175.216)" fill="#fff"/>
    </g>
    <g id="Group_2181" data-name="Group 2181" transform="translate(-1693.109 -2252.109)">
      <circle id="Ellipse_27" data-name="Ellipse 27" cx="11.445" cy="11.445" r="11.445" transform="translate(1900.507 2380.662) rotate(-46.94)" fill="#2d3e74"/>
      <path id="Path_4278" data-name="Path 4278" d="M314.046,210.316l-7.666.387a2.555,2.555,0,0,1-2.673-2.426l-.387-7.666a2.555,2.555,0,0,1,2.426-2.673l7.666-.387a2.555,2.555,0,0,1,2.673,2.426l.387,7.666a2.555,2.555,0,0,1-2.426,2.673Zm-8.235-11.209a1.353,1.353,0,0,0-1.288,1.417l.387,7.655a1.353,1.353,0,0,0,1.417,1.288l7.655-.386a1.353,1.353,0,0,0,1.288-1.417l-.387-7.655a1.353,1.353,0,0,0-1.417-1.288Z" transform="translate(1606.649 2175.634)" fill="#fff"/>
      <path id="Path_4279" data-name="Path 4279" d="M309.8,206.871a2.985,2.985,0,1,1,2.075-.976,3,3,0,0,1-2.075.976Zm-.236-4.778a1.8,1.8,0,1,0,1.884,1.7A1.8,1.8,0,0,0,309.559,202.093Z" transform="translate(1606.894 2175.879)" fill="#fff"/>
      <path id="Path_4280" data-name="Path 4280" d="M312.506,199.43a.859.859,0,1,1-.6.282A.859.859,0,0,1,312.506,199.43Z" transform="translate(1607.265 2175.772)" fill="#fff"/>
    </g>
  </g>
</svg>
